<?xml version="1.0" standalone="no"?>
<!DOCTYPE svg PUBLIC "-//W3C//DTD SVG 20010904//EN"
 "http://www.w3.org/TR/2001/REC-SVG-20010904/DTD/svg10.dtd">
<svg version="1.0" xmlns="http://www.w3.org/2000/svg"
 width="285.000000pt" height="285.000000pt" viewBox="0 0 285.000000 285.000000"
 preserveAspectRatio="xMidYMid meet">

<g transform="translate(0.000000,285.000000) scale(0.100000,-0.100000)"
fill="#000000" stroke="none">
<path d="M0 1425 l0 -1425 115 0 115 0 0 685 0 685 168 0 c435 -1 606 -44 753
-191 118 -118 175 -273 185 -504 12 -272 -52 -490 -186 -633 l-40 -43 122 3
121 3 257 680 257 680 152 3 151 3 19 -43 c9 -24 125 -332 256 -686 l238 -642
84 0 83 0 0 1425 0 1425 -295 0 -294 0 30 -82 c17 -46 122 -331 235 -633 112
-303 204 -556 204 -563 0 -10 -38 -12 -162 -10 l-163 3 -70 195 -70 195 -241
3 c-186 2 -244 -1 -251 -10 -6 -7 -38 -92 -73 -188 -34 -96 -65 -181 -67 -187
-4 -10 -47 -13 -170 -13 -153 0 -165 1 -161 18 4 12 407 1082 473 1255 7 16
-11 17 -289 17 l-297 0 25 -33 c123 -161 163 -540 84 -797 -72 -231 -234 -386
-455 -436 -47 -11 -152 -17 -340 -21 l-273 -6 0 647 0 646 -115 0 -115 0 0
-1425z"/>
<path d="M550 2319 l0 -471 108 4 c127 5 192 28 246 89 70 77 103 173 113 334
14 232 -49 408 -169 471 -45 23 -149 44 -225 44 l-73 0 0 -471z"/>
<path d="M1944 2447 l-72 -202 74 -3 c41 -2 107 -2 147 0 l73 3 -69 203 c-38
111 -72 202 -76 202 -3 0 -38 -91 -77 -203z"/>
<path d="M550 610 l0 -472 108 4 c123 5 183 25 244 85 93 90 139 313 108 525
-16 107 -46 176 -104 234 -63 63 -120 84 -258 91 l-98 6 0 -473z"/>
<path d="M1946 742 c-38 -108 -71 -203 -74 -209 -3 -10 29 -13 141 -13 80 0
148 3 150 8 4 8 -135 412 -143 412 -3 0 -36 -89 -74 -198z"/>
<path d="M1773 238 c-6 -7 -28 -64 -50 -125 l-41 -113 334 0 c184 0 334 3 333
8 0 4 -19 59 -42 122 l-42 115 -241 3 c-186 2 -244 -1 -251 -10z"/>
</g>
</svg>
