<?xml version="1.0" standalone="no"?>
<!DOCTYPE svg PUBLIC "-//W3C//DTD SVG 20010904//EN"
 "http://www.w3.org/TR/2001/REC-SVG-20010904/DTD/svg10.dtd">
<svg version="1.0" xmlns="http://www.w3.org/2000/svg"
 width="285.000000pt" height="285.000000pt" viewBox="0 0 285.000000 285.000000"
 preserveAspectRatio="xMidYMid meet">
<metadata>
Created by potrace 1.15, written by Peter Selinger 2001-2017
</metadata>
<g transform="translate(0.000000,285.000000) scale(0.100000,-0.100000)"
fill="#000000" stroke="none">
<path d="M107 2819 c-25 -16 -60 -51 -76 -76 l-31 -46 0 -1272 0 -1272 31 -46
c37 -57 110 -107 156 -107 l33 0 2 683 3 682 265 -1 c241 0 274 -2 358 -23
247 -61 397 -206 465 -450 18 -65 21 -103 21 -271 0 -169 -3 -206 -22 -275
-29 -106 -82 -212 -143 -285 l-50 -60 115 0 115 0 21 58 c12 31 128 338 258
682 l237 625 156 3 156 2 254 -685 c140 -377 257 -685 260 -685 20 0 103 69
128 107 l31 46 0 1272 0 1272 -31 46 c-16 25 -51 60 -76 76 l-46 31 -219 0
c-121 0 -217 -3 -215 -7 3 -5 109 -287 235 -628 127 -341 234 -628 237 -637 7
-17 -5 -18 -162 -18 l-169 0 -69 195 -70 195 -246 0 -247 0 -43 -117 c-23 -65
-54 -152 -69 -193 l-28 -75 -166 -3 c-129 -2 -166 0 -166 10 0 7 108 297 239
643 l239 630 -286 3 c-157 1 -287 0 -290 -3 -3 -3 2 -13 10 -22 28 -32 79
-144 101 -222 18 -66 21 -103 21 -271 -1 -168 -4 -206 -22 -275 -71 -262 -240
-427 -487 -477 -38 -8 -160 -12 -330 -13 l-270 0 -3 643 -2 642 -33 0 c-21 0
-52 -12 -80 -31z"/>
<path d="M550 2320 l0 -470 78 0 c246 0 354 109 383 386 27 248 -36 440 -164
505 -52 27 -157 49 -234 49 l-63 0 0 -470z"/>
<path d="M2016 2640 c-3 -8 -37 -100 -74 -205 l-68 -190 139 -3 c77 -1 142 0
145 2 2 3 -27 97 -66 208 -39 113 -73 196 -76 188z"/>
<path d="M550 610 l0 -470 78 0 c244 0 352 107 383 380 14 119 1 268 -31 353
-25 66 -79 131 -132 158 -53 27 -158 49 -235 49 l-63 0 0 -470z"/>
<path d="M1944 730 l-71 -200 143 0 c79 0 144 3 144 7 0 16 -133 393 -139 393
-4 0 -38 -90 -77 -200z"/>
<path d="M1731 128 c-23 -62 -41 -116 -41 -120 0 -5 149 -8 331 -8 182 0 329
4 327 8 -1 4 -21 58 -43 120 l-40 112 -246 0 -247 0 -41 -112z"/>
</g>
</svg>
